<svg enable-background="new 0 0 24 24" viewBox="0 0 24 24" xmlns="http://www.w3.org/2000/svg"><path d="m16 22h-2v-2h-4v2h-2c-.552 0-1 .448-1 1s.448 1 1 1h8c.553 0 1-.448 1-1s-.447-1-1-1z"/><path d="m22.25 4h-2.25v2h2v12h-20v-12h2v-2h-2.25c-.96 0-1.75.79-1.75 1.75v12.5c0 .96.79 1.75 1.75 1.75h20.5c.96 0 1.75-.79 1.75-1.75v-12.5c0-.96-.79-1.75-1.75-1.75z"/><path d="m9.944.965 5.443 2.788 2.164-1.065-5.347-2.642c-.12-.061-.264-.061-.39 0z"/><path d="m6.462 2.687 5.538 2.745 2.074-1.022.3-.152-5.449-2.788-.3.152z"/><path d="m12.444 6.224.006 5.776 5.305-2.769c.149-.08.245-.238.245-.408v-5.344l-2.248 1.108v1.948c0 .25-.204.457-.45.457s-.45-.207-.45-.457v-1.498l-.3.146z"/><path d="m8.248 4.586v.003l3.297 1.629.012.006-.007 5.776-5.304-2.769c-.15-.08-.246-.238-.246-.408v-5.344z"/></svg>