<svg width="811" height="634" viewBox="0 0 811 634" fill="none" xmlns="http://www.w3.org/2000/svg">
<circle cx="380.666" cy="142.89" r="101.038" transform="rotate(45 380.666 142.89)" fill="#CEAF7F"/>
<path fill-rule="evenodd" clip-rule="evenodd" d="M811 431.096H237.776V633.173H811V431.096ZM395.173 585.078C423.554 614.293 469.57 614.293 497.951 585.078C526.333 555.862 526.333 508.495 497.951 479.28C469.57 450.065 423.554 450.065 395.173 479.28C366.791 508.495 366.791 555.862 395.173 585.078Z" fill="#CEAF7F"/>
<rect x="523.438" y="52.0544" width="202.076" height="202.076" transform="rotate(45 523.438 52.0544)" fill="#212121"/>
<rect x="237.659" y="52.0544" width="202.076" height="202.076" transform="rotate(45 237.659 52.0544)" fill="#212121"/>
<rect x="523.438" y="337.834" width="202.076" height="202.076" transform="rotate(45 523.438 337.834)" fill="#212121"/>
<rect x="534" y="168" width="277" height="54" fill="#CEAF7F"/>
<rect y="249.228" width="74.0947" height="177.827" fill="#CEAF7F"/>
<circle cx="540.584" cy="338.786" r="50.5191" transform="rotate(45 540.584 338.786)" fill="#9689BD"/>
<circle cx="442.525" cy="536.154" r="39.0408" transform="rotate(45 442.525 536.154)" fill="#9689BD"/>
<rect x="556.302" y="306.874" width="22.902" height="22.2284" transform="rotate(45 556.302 306.874)" fill="#212121"/>
<rect x="524.866" y="306.874" width="22.2284" height="22.902" transform="rotate(45 524.866 306.874)" fill="#212121"/>
<rect x="524.39" y="338.786" width="22.902" height="22.2284" transform="rotate(45 524.39 338.786)" fill="#212121"/>
<rect x="556.778" y="338.786" width="22.2284" height="22.902" transform="rotate(45 556.778 338.786)" fill="#212121"/>
<path fill-rule="evenodd" clip-rule="evenodd" d="M380.651 480.979L237.813 338.141L95.0791 481.082L119.793 505.796L138.392 487.17L168.696 517.475L150.097 536.101L182.664 568.667L201.263 550.041L231.568 580.346L212.969 598.972L237.917 623.92L380.651 480.979ZM231.533 519.346L200.31 488.123L170.028 518.449L201.251 549.672L231.533 519.346Z" fill="#212121"/>
</svg>
