<svg viewBox="0 0 28 28" fill="none" xmlns="http://www.w3.org/2000/svg">
<g clip-path="url(#clip0)">
<path d="M27.9108 12.3874C27.8513 12.2451 27.7662 12.1156 27.6577 12.0071L24.1588 8.50824C23.7027 8.05324 22.9653 8.05324 22.5092 8.50824C22.053 8.96439 22.053 9.70289 22.5092 10.1579L24.0177 11.6664H17.5006C16.8555 11.6664 16.334 12.189 16.334 12.833C16.334 13.477 16.8555 13.9997 17.5006 13.9997H24.0176L22.5091 15.5082C22.053 15.9643 22.053 16.7028 22.5091 17.1578C22.7366 17.3865 23.0353 17.4997 23.334 17.4997C23.6327 17.4997 23.9313 17.3865 24.1588 17.1578L27.6577 13.659C27.7662 13.5516 27.8513 13.4221 27.9108 13.2786C28.0286 12.9941 28.0286 12.6721 27.9108 12.3874Z" fill="#000000"/>
<path d="M19.8343 16.3334C19.1891 16.3334 18.6676 16.856 18.6676 17.5V23.3334H14.001V4.66665C14.001 4.15215 13.6626 3.69715 13.1691 3.549L9.11727 2.33335H18.6676V8.1667C18.6676 8.8107 19.1891 9.33335 19.8343 9.33335C20.4794 9.33335 21.0009 8.8107 21.0009 8.1667V1.1667C21.0009 0.522648 20.4794 0 19.8343 0H1.16763C1.12563 0 1.08827 0.0175 1.04748 0.0221484C0.992625 0.028 0.942477 0.0372969 0.889977 0.0501484C0.767477 0.0816484 0.656625 0.1295 0.552828 0.194797C0.52718 0.211148 0.49568 0.212297 0.47118 0.230945C0.461773 0.238 0.458273 0.250852 0.448922 0.257852C0.321773 0.358148 0.215625 0.480648 0.138625 0.6265C0.122273 0.658 0.118773 0.691852 0.105977 0.7245C0.068625 0.813148 0.0278281 0.8995 0.0138281 0.9975C0.00797656 1.0325 0.0184766 1.06515 0.0173281 1.099C0.0161797 1.12235 0.000976562 1.14335 0.000976562 1.16665V24.5C0.000976562 25.0565 0.394125 25.5349 0.938977 25.6434L12.6056 27.9767C12.6815 27.9931 12.7585 28.0001 12.8343 28.0001C13.1014 28.0001 13.3639 27.9079 13.5739 27.7352C13.8434 27.5136 14.0009 27.1834 14.0009 26.8334V25.6667H19.8343C20.4794 25.6667 21.0009 25.1441 21.0009 24.5001V17.5C21.0009 16.856 20.4794 16.3334 19.8343 16.3334Z" fill="#000000"/>
</g>
<defs>
<clipPath id="clip0">
<rect width="28" height="28" fill="white"/>
</clipPath>
</defs>
</svg>
