<svg id="bold" viewBox="0 0 24 24" xmlns="http://www.w3.org/2000/svg"><path d="m19.75 24h-2.5c-.689 0-1.25-.561-1.25-1.25v-4.5h-2.25c-.303 0-.577-.183-.693-.463s-.052-.603.163-.817l4.75-4.75c.293-.293.768-.293 1.061 0l4.75 4.75c.214.214.279.537.163.817s-.39.463-.693.463h-2.251v4.5c0 .689-.561 1.25-1.25 1.25z"/><path d="m21 3h-18c-1.65 0-3 1.35-3 3v12c0 1.65 1.35 3 3 3h11v-.75h-.25c-.95 0-1.8-.48-2.29-1.25h-8.46c-.55 0-1-.45-1-1v-12c0-.55.45-1 1-1h18c.55 0 1 .45 1 1v6.37l2 2v-8.37c0-1.65-1.35-3-3-3z"/><path d="m7.25 8h-6c-.414 0-.75.336-.75.75v6.5c0 .414.336.75.75.75h6c1.517 0 2.75-1.233 2.75-2.75v-2.5c0-1.517-1.233-2.75-2.75-2.75zm-1.25 6c-1.105 0-2-.895-2-2s.895-2 2-2 2 .895 2 2-.895 2-2 2z"/></svg>